<svg id="Layer_1" data-name="Layer 1" xmlns="http://www.w3.org/2000/svg" viewBox="0 0 1750 980"><defs><style>.cls-1{fill:#26136e;}.cls-2{fill:#341270;}.cls-10,.cls-11,.cls-12,.cls-13,.cls-14,.cls-15,.cls-16,.cls-17,.cls-18,.cls-19,.cls-2,.cls-20,.cls-21,.cls-22,.cls-23,.cls-24,.cls-25,.cls-26,.cls-27,.cls-28,.cls-29,.cls-3,.cls-30,.cls-31,.cls-32,.cls-33,.cls-34,.cls-35,.cls-36,.cls-4,.cls-5,.cls-6,.cls-7,.cls-8,.cls-9{fill-rule:evenodd;}.cls-3{fill:#3d1273;}.cls-4{fill:#491279;}.cls-5{fill:#55147f;}.cls-6{fill:#23196e;}.cls-7{fill:#211f6f;}.cls-8{fill:#1d2870;}.cls-9{fill:#1a2e72;}.cls-10{fill:#241c6d;}.cls-11{fill:#23236d;}.cls-12{fill:#222c6d;}.cls-13{fill:#22356e;}.cls-14{fill:#25176d;}.cls-15{fill:#23226d;}.cls-16{fill:#22296d;}.cls-17{fill:#69f;}.cls-18{fill:#66bdff;}.cls-19{fill:#426ec7;}.cls-20{fill:#2f83c4;}.cls-21{fill:#df99ff;}.cls-22{fill:#f66;}.cls-23{fill:#c43f57;}.cls-24{fill:#96f;}.cls-25{fill:#321791;}.cls-26{fill:#220b78;}.cls-27{fill:#7c1370;}.cls-28{fill:#be2385;}.cls-29{fill:#366;}.cls-30{fill:#699;}.cls-31{fill:#ffc;}.cls-32{fill:#ff6;}.cls-33{fill:#fc0;}.cls-34{fill:#039;}.cls-35{fill:#082c73;}.cls-36{fill:#fff;}</style></defs><title>intro-section-background</title><rect class="cls-1" width="1750" height="980"/><path class="cls-2" d="M215.85,302.19c66.6,0,120.92-54.36,120.92-121S282.45,60.31,215.85,60.31s-121,54.31-121,120.92,54.35,121,121,121Z"/><path class="cls-3" d="M215.85,285.88c57.6,0,104.61-47,104.61-104.65s-47-104.62-104.61-104.62-104.66,47-104.66,104.62A104.85,104.85,0,0,0,215.85,285.88Z"/><path class="cls-4" d="M215.85,260.61a79.37,79.37,0,1,0-79.38-79.38,79.54,79.54,0,0,0,79.38,79.38Z"/><path class="cls-5" d="M215.85,235.55a54.31,54.31,0,1,0-54.33-54.32,54.41,54.41,0,0,0,54.33,54.32Z"/><path class="cls-6" d="M1488,887.67c98.67,0,179.13-80.47,179.13-179.13S1586.64,529.38,1488,529.38s-179.16,80.46-179.16,179.16S1389.27,887.67,1488,887.67Z"/><path class="cls-7" d="M1488,863.52c85.37,0,155-69.62,155-155s-69.61-155-155-155-155,69.62-155,155,69.61,155,155,155Z"/><path class="cls-8" d="M1488,826.07c64.75,0,117.53-52.78,117.53-117.53S1552.72,591,1488,591s-117.56,52.82-117.56,117.57S1423.22,826.07,1488,826.07Z"/><path class="cls-9" d="M1488,788.93a80.41,80.41,0,1,0-80.43-80.39A80.56,80.56,0,0,0,1488,788.93Z"/><path class="cls-2" d="M1458,254.13a45.73,45.73,0,1,0-45.71-45.71A45.81,45.81,0,0,0,1458,254.13Z"/><path class="cls-3" d="M1458,248a39.57,39.57,0,1,0-39.55-39.55A39.64,39.64,0,0,0,1458,248Z"/><path class="cls-4" d="M1458,238.42a30,30,0,1,0-30-30,30.05,30.05,0,0,0,30,30Z"/><path class="cls-5" d="M1458,228.93a20.53,20.53,0,1,0-20.51-20.51A20.54,20.54,0,0,0,1458,228.93Z"/><path class="cls-10" d="M160,942.48a88.73,88.73,0,1,0-88.76-88.73A88.88,88.88,0,0,0,160,942.48Z"/><path class="cls-11" d="M160,930.54a76.77,76.77,0,1,0-76.79-76.79A76.92,76.92,0,0,0,160,930.54Z"/><path class="cls-12" d="M160,912a58.22,58.22,0,1,0-58.24-58.24A58.32,58.32,0,0,0,160,912Z"/><path class="cls-13" d="M160,893.58a39.83,39.83,0,1,0-39.83-39.83A39.92,39.92,0,0,0,160,893.58Z"/><path class="cls-14" d="M328.51,480.13A34.57,34.57,0,1,0,294,445.55a34.65,34.65,0,0,0,34.54,34.58Z"/><path class="cls-10" d="M328.51,475.47a29.91,29.91,0,1,0-29.89-29.92,30,30,0,0,0,29.89,29.92Z"/><path class="cls-15" d="M328.51,468.23a22.68,22.68,0,1,0-22.68-22.68,22.72,22.72,0,0,0,22.68,22.68Z"/><path class="cls-16" d="M328.51,461.09A15.53,15.53,0,1,0,313,445.55a15.57,15.57,0,0,0,15.5,15.54Z"/><path class="cls-17" d="M286.44,628a51.24,51.24,0,1,0-51.24-51.24A51.33,51.33,0,0,0,286.44,628Z"/><path class="cls-18" d="M321.65,539.49a51,51,0,0,1,5.36,5.92c-3.89.07-7.81.1-11.8.1a607.47,607.47,0,0,1-66.57-3.36,29.6,29.6,0,0,1,2.21-2.27c10,.45,20.64.66,31.63.66,13.79,0,27-.35,39.17-1ZM333.34,556c.31.74.63,1.47.91,2.21-13.23,14.48-42.31,30.2-75.35,39.51-5.88,1.65-11.63,3-17.12,4.13a52.34,52.34,0,0,1-5.14-13.19,192.06,192.06,0,0,0,38.29-7c22.6-6.33,43.33-15.68,58.41-25.62Zm2.73,33.57c-.14.52-.28,1.08-.46,1.6a238,238,0,0,1-34.75,12.71c-20.41,5.78-38.78,8.05-52.46,7.14a56.79,56.79,0,0,1-5.54-7.35c13.45,4.55,37.77,3.25,66.05-4.73a243.94,243.94,0,0,0,27.16-9.37Zm-16.91,26.59a51.44,51.44,0,0,1-15,8.65c-13.58-.07-26.53-.49-38.43-1.23a51.12,51.12,0,0,1-15.37-10.5,622,622,0,0,0,64.23,3.08Z"/><path class="cls-19" d="M323.36,612.25a51.24,51.24,0,1,1-36.92-86.76l-16.8,11.24,2.76,4.79-3.84,9.73,3.21,12.67,6.34,3.67.77,7.11-5.7,7.42-11-1.86-.45.46-7,12.5,5.11,9.13.45.14,13.76.63,9.1-5.74,3.54,4.2,4.34.77L290,606.8h.59l10.5.94c2-1,.63-.32.78-.46l6.64-7.42-9.27-5.7,2-4.8,9.24-3.08,4.17,7.25L312.06,600l3.12,4.17-8.65,7.28-3.39-1.09-1.54,2.46,6,3.7,9.7-5.25Zm-4.23-27.72-4.55-.84-.07-3,3.78-1.08.24-.14,2.45,1.93-.31,1.15Zm-53.86,15.69-.84-.78.91-1.85.94.7Zm11.93-12.08-2-1.08-1.08.91v1.71l2,.77,2-2.48Zm18.52-49.24-1.23-2.17.91-1.06,1.71.28v2.63Zm-11,14.84-2-2.49,1.36-.77,2,.63.28,2Zm11.72,6.47-9.55.31-2,5.22,3.88,3.4,5.08-3.22-.77-2.94,2.76-.64Zm-34.26-18.83-4.79,1.22-1.69,6,6.62,3.07,3.12-4.93Zm-9.56,31.15-.48,1.57,1.57,1.23.77-2.17Zm1.69,6.82L249.1,578l-2.45,4.48,4.3,3.08,6.33-5.25Zm10.5-12.8,3.08-.32-.15,2h-2.93Zm-7.42-9.14-3.4-.14v2.31l3.71,1.09Z"/><path class="cls-20" d="M319.16,616.17a51.44,51.44,0,0,1-15,8.65c-13.58-.07-26.53-.49-38.43-1.23a51.12,51.12,0,0,1-15.37-10.5c16.17,1.75,35.56,2.84,56.6,3l.66.38.7-.38c2.07,0,4.17,0,6.27,0ZM248.4,611a56.79,56.79,0,0,1-5.54-7.35c10.47,3.54,27.58,3.54,48-.42l-.8,3.43c-16.07,3.67-30.42,5.07-41.65,4.34Zm-6.62-9.17a52.34,52.34,0,0,1-5.14-13.19,169.2,169.2,0,0,0,22.46-3.16l-4.3,7.71,2.73,4.89c-5.39,1.47-10.68,2.73-15.75,3.75Zm6.86-59.71a29.6,29.6,0,0,1,2.21-2.27c6.75.28,13.75.48,21,.59l.59,1-1,2.63c-2.7-.18-5.29-.39-7.84-.57l-1.33-2.2-4.79,1.22-.11.42c-3-.27-5.88-.55-8.68-.87Zm57.71,60.13,2.17-2.42-.87-.55c.42-.11.84-.22,1.26-.36,1.36-.38,2.73-.77,4.06-1.19l-.91,2.24.28.39c-2,.63-4,1.29-6,1.89ZM277.2,588.14l-2-1.08-1.08.91v1.71l2,.77,2-2.48Z"/><path class="cls-21" d="M286.44,525.49a51.23,51.23,0,0,1,15.4,100.1,51.25,51.25,0,0,0-19.25-98.74,51.92,51.92,0,0,0-15.4,2.35,51.78,51.78,0,0,1,19.25-3.71Z"/><path class="cls-22" d="M1386.54,865.92a70.37,70.37,0,1,0-70.35-70.39,70.5,70.5,0,0,0,70.35,70.39Z"/><path class="cls-23" d="M1386.54,725.18a70.37,70.37,0,1,1,0,140.74c-7.07-1.93-22-3.08-19.6-9.73,1.22-3.29,10.6,1.33,19.91,2.06,12.39,1,25.45-1.61,26.88-5.6,2.14-6-12.77-2-30-2.9-20.37-1.12-43.82-7.11-43.22-16.56.45-7.21,21,2.07,41.23,3.89,20.65,1.85,41-3.78,42-15.75,1-12.18-18.83-9.1-41.82-9.63-21.49-.52-48.76-7.84-49.7-20.79-1-14,21-8.15,41.82-8.57s40.88-7.11,37.21-21.07c-2-7.63-14.49-2.8-30-2.1-15.65.73-34.27-2.63-35.49-9-2.31-12.07,25.93-23.45,40.74-25Z"/><path class="cls-21" d="M1386.54,725.18q3.46,0,6.82.32c-.52,0-1,0-1.57,0A70.39,70.39,0,0,0,1385,865.92a70.38,70.38,0,0,1,1.54-140.74Z"/><path class="cls-24" d="M1564.1,397.21c0-117.84,78-217.45,185.22-250.07V647.26c-107.2-32.59-185.22-132.2-185.22-250Z"/><path class="cls-25" d="M1697.21,169.47a258.65,258.65,0,0,1,52.11-22.33v488.6c-100.76-36.23-172.86-132.69-172.86-245.95a261.18,261.18,0,0,1,120.75-220.32Z"/><path class="cls-26" d="M1694.41,184.48c12.21-6.89,41.26-12.49,54.91-16.66V532c-51.2-18.41-32.55-42.84-53.66-92.71-9.86-23.28-75.17-63.74-75.17-90.62,0-25.79,18-51,27-73.53,15.26-37.77,13-69,46.87-90.69Zm-89.08,273.11a4,4,0,1,1,4,3.92,3.92,3.92,0,0,1-4-3.92Zm-13.72-72.21a4.64,4.64,0,1,1,4.62,4.55,4.59,4.59,0,0,1-4.62-4.55Zm20.83,18.34a6.44,6.44,0,1,1,6.44,6.34,6.39,6.39,0,0,1-6.44-6.34Zm62.61,107.52a9.8,9.8,0,1,1,9.8,9.66,9.7,9.7,0,0,1-9.8-9.66Zm-3.32,48a20.37,20.37,0,1,1,20.37,20.06,20.18,20.18,0,0,1-20.37-20.06Z"/><path class="cls-27" d="M511.81,266.52a15.29,15.29,0,1,0-15.3-15.29,15.31,15.31,0,0,0,15.3,15.29Z"/><path class="cls-28" d="M520.2,238.42a15.31,15.31,0,0,1-8.39,28.1,15.66,15.66,0,0,1-1.83-.1,15.31,15.31,0,0,1,8.37-28.11,15.86,15.86,0,0,1,1.85.11Z"/><path class="cls-29" d="M1231.2,189.94a28.09,28.09,0,1,0-28.11-28.06,28.09,28.09,0,0,0,28.11,28.06Z"/><path class="cls-30" d="M1247.44,184.8a28.14,28.14,0,0,1-44.35-22.92,27.6,27.6,0,0,1,2.76-12.11,28.1,28.1,0,0,1,41.59,35Zm-9.07-41.51a1.93,1.93,0,1,1-1.92,1.93,1.92,1.92,0,0,1,1.92-1.93Zm11.72,8.05a.74.74,0,1,1,0,1.47.74.74,0,0,1,0-1.47Z"/><path class="cls-29" d="M1221.4,148.68a3,3,0,1,1-3,3,3,3,0,0,1,3-3Zm8.71,23.52a.73.73,0,0,1,.73.7.73.73,0,1,1-.73-.7Zm4.94-18.38a.72.72,0,1,1,0,1.44.72.72,0,1,1,0-1.44Zm8.29,9.53a.73.73,0,1,1,0,1.46.73.73,0,0,1,0-1.46Zm-4.2,13.75a1.43,1.43,0,0,1,1.44,1.44,1.46,1.46,0,0,1-1.44,1.47,1.44,1.44,0,0,1-1.43-1.47,1.41,1.41,0,0,1,1.43-1.44Zm-12.53,7.42a1.45,1.45,0,0,1,1.47,1.43,1.45,1.45,0,1,1-2.9,0,1.44,1.44,0,0,1,1.43-1.43Zm19.32-4.51a1.94,1.94,0,0,1,1.93,1.92,1.93,1.93,0,1,1-1.93-1.92Zm-6.47-21.91a1.92,1.92,0,1,1-1.93,1.92,1.93,1.93,0,0,1,1.93-1.92ZM1213,159.81a1.93,1.93,0,1,1-1.92,1.92,1.93,1.93,0,0,1,1.92-1.92Z"/><path class="cls-31" d="M308.63,932.47a5.67,5.67,0,0,1,2.66.67c.77.45,96-53.38,96.49-52.64s-93.62,56.38-93.62,57.5a5.53,5.53,0,1,1-5.53-5.53Z"/><path class="cls-32" d="M308.63,942.34a4.33,4.33,0,1,0-4.34-4.34,4.34,4.34,0,0,0,4.34,4.34Z"/><path class="cls-33" d="M308.28,941.29a2.93,2.93,0,1,0-2.9-2.9,2.92,2.92,0,0,0,2.9,2.9Z"/><path class="cls-31" d="M426.82,869.05c.25-.14,146.79-85.3,147-85s-145.67,86.52-146,86.69c-2,1.23-2.84-.62-1-1.64Z"/><path class="cls-24" d="M0,.61C90.93,71.07,149.48,181.32,149.48,305.29S90.93,539.51,0,610Z"/><path class="cls-34" d="M0,569.54V6.46A384.17,384.17,0,0,1,122.32,288,384.2,384.2,0,0,1,0,569.54Z"/><path class="cls-35" d="M0,445.81V26.2C18.83,43.8,47.32,69.14,60.13,91.68c21.14,37.1,10.32,62.16,10.32,107.91,0,27,25,90.09,19,116.76C79.1,362.2,66.05,418.86,0,445.81Z"/><path class="cls-36" d="M644,115.4a2.47,2.47,0,1,0-2.48-2.49A2.48,2.48,0,0,0,644,115.4Z"/><path class="cls-36" d="M482.72,85.93a2.49,2.49,0,1,0-2.49-2.49,2.49,2.49,0,0,0,2.49,2.49Z"/><path class="cls-36" d="M418.49,283.47A2.5,2.5,0,0,0,421,281a2.46,2.46,0,0,0-2.49-2.45,2.43,2.43,0,0,0-2.44,2.45,2.46,2.46,0,0,0,2.44,2.49Z"/><path class="cls-36" d="M556.22,534.34a2.48,2.48,0,1,0-2.49-2.48,2.48,2.48,0,0,0,2.49,2.48Z"/><path class="cls-36" d="M423.43,656.35a2.45,2.45,0,0,0,2.48-2.44,2.49,2.49,0,1,0-5,0,2.46,2.46,0,0,0,2.49,2.44Z"/><path class="cls-36" d="M475.3,666.26a2.49,2.49,0,1,0-2.49-2.49,2.49,2.49,0,0,0,2.49,2.49Z"/><path class="cls-36" d="M690.13,851.44a2.47,2.47,0,1,0-2.48-2.48,2.48,2.48,0,0,0,2.48,2.48Z"/><path class="cls-36" d="M623.45,895.9a2.47,2.47,0,1,0-2.48-2.49,2.48,2.48,0,0,0,2.48,2.49Z"/><path class="cls-36" d="M181.44,693.42a2.49,2.49,0,1,0-2.49-2.49,2.5,2.5,0,0,0,2.49,2.49Z"/><path class="cls-36" d="M801.26,646.49a2.5,2.5,0,0,0,2.48-2.49,2.49,2.49,0,0,0-5,0,2.5,2.5,0,0,0,2.49,2.49Z"/><path class="cls-36" d="M1030.93,750.23a2.49,2.49,0,1,0-2.49-2.49,2.5,2.5,0,0,0,2.49,2.49Z"/><path class="cls-36" d="M1245.76,547.72a2.49,2.49,0,1,0-2.49-2.49,2.5,2.5,0,0,0,2.49,2.49Z"/><path class="cls-36" d="M1403.82,352.63a2.49,2.49,0,1,0-2.49-2.49,2.49,2.49,0,0,0,2.49,2.49Z"/><path class="cls-36" d="M1364.3,258.79a2.49,2.49,0,1,0-2.48-2.48,2.49,2.49,0,0,0,2.48,2.48Z"/><path class="cls-36" d="M1476,207.76a2.46,2.46,0,0,0,2.48-2.45,2.49,2.49,0,0,0-2.48-2.49,2.46,2.46,0,0,0-2.45,2.49,2.43,2.43,0,0,0,2.45,2.45Z"/><path class="cls-36" d="M1455.48,162.05a2.47,2.47,0,1,0-2.49-2.49,2.47,2.47,0,0,0,2.49,2.49Z"/><path class="cls-36" d="M1307.5,44a2.49,2.49,0,1,0-2.49-2.48A2.49,2.49,0,0,0,1307.5,44Z"/><path class="cls-36" d="M1542.1,476.1a2.48,2.48,0,1,0-2.48-2.48,2.49,2.49,0,0,0,2.48,2.48Z"/><path class="cls-36" d="M1653.23,582.3a2.49,2.49,0,1,0-2.49-2.49,2.5,2.5,0,0,0,2.49,2.49Z"/><path class="cls-36" d="M1594,757.61a2.47,2.47,0,1,0-2.48-2.48,2.47,2.47,0,0,0,2.48,2.48Z"/><path class="cls-36" d="M1275.4,742.81a2.49,2.49,0,1,0-2.48-2.49,2.51,2.51,0,0,0,2.48,2.49Z"/><path class="cls-36" d="M1144.53,863.8a2.46,2.46,0,0,0,2.49-2.45,2.49,2.49,0,1,0-5,0,2.46,2.46,0,0,0,2.48,2.45Z"/><path class="cls-36" d="M1028.48,127.93a2.49,2.49,0,1,0-2.49-2.49,2.5,2.5,0,0,0,2.49,2.49Z"/><path class="cls-36" d="M134.54,56.31a2.48,2.48,0,1,0-2.48-2.48,2.47,2.47,0,0,0,2.48,2.48Z"/><path class="cls-36" d="M148.72,69.48a4.1,4.1,0,0,0,0-8.2,4.1,4.1,0,1,0,0,8.2Z"/><path class="cls-36" d="M283.08,36.3a4.1,4.1,0,1,0-4.1-4.1,4.11,4.11,0,0,0,4.1,4.1Z"/><path class="cls-36" d="M332.47,83.23a4.1,4.1,0,1,0-4.1-4.09,4.12,4.12,0,0,0,4.1,4.09Z"/><path class="cls-36" d="M644.84,59.78a4.11,4.11,0,1,0-4.1-4.09,4.1,4.1,0,0,0,4.1,4.09Z"/><path class="cls-36" d="M269.89,382.41a4.1,4.1,0,1,0-4.1-4.1,4.1,4.1,0,0,0,4.1,4.1Z"/><path class="cls-36" d="M576.1,725.66a4.1,4.1,0,1,0-4.09-4.1,4.1,4.1,0,0,0,4.09,4.1Z"/><path class="cls-36" d="M57.51,883.72a4.1,4.1,0,1,0-4.1-4.1,4.1,4.1,0,0,0,4.1,4.1Z"/><path class="cls-36" d="M1005.76,915.81a4.1,4.1,0,0,0,0-8.19,4.1,4.1,0,0,0,0,8.19Z"/><path class="cls-36" d="M1196.37,481.18a4.1,4.1,0,1,0-4.09-4.09,4.1,4.1,0,0,0,4.09,4.09Z"/><path class="cls-36" d="M1591.63,680.54a4.1,4.1,0,0,0,0-8.19,4.1,4.1,0,1,0,0,8.19Z"/><path class="cls-36" d="M938.88,227.11a4.09,4.09,0,1,0-4.1-4.09,4.09,4.09,0,0,0,4.1,4.09Z"/><path class="cls-36" d="M1586.1,70.49a4.1,4.1,0,1,0-4.1-4.09,4.11,4.11,0,0,0,4.1,4.09Z"/><path class="cls-36" d="M680.72,449.93a1.7,1.7,0,1,0-1.69-1.69,1.72,1.72,0,0,0,1.69,1.69Z"/><path class="cls-36" d="M679,163.9a1.7,1.7,0,0,0,0-3.39,1.7,1.7,0,1,0,0,3.39Z"/><path class="cls-36" d="M966.7,68.53a1.69,1.69,0,0,0,1.68-1.72,1.65,1.65,0,0,0-1.68-1.67A1.68,1.68,0,0,0,965,66.81a1.71,1.71,0,0,0,1.71,1.72Z"/><path class="cls-36" d="M1317.37,300.65a1.7,1.7,0,1,0-1.72-1.71,1.71,1.71,0,0,0,1.72,1.71Z"/><path class="cls-36" d="M1695.67,66.83a1.68,1.68,0,0,0,1.68-1.68,1.7,1.7,0,1,0-3.4,0,1.69,1.69,0,0,0,1.72,1.68Z"/><path class="cls-36" d="M1043.25,540.19a1.72,1.72,0,0,0,1.71-1.71,1.72,1.72,0,0,0-3.43,0,1.72,1.72,0,0,0,1.72,1.71Z"/><path class="cls-36" d="M1139.57,732.8a1.7,1.7,0,1,0-1.72-1.69,1.71,1.71,0,0,0,1.72,1.69Z"/><path class="cls-36" d="M428.36,409.29a1.69,1.69,0,0,0,1.69-1.68,1.7,1.7,0,1,0-3.4,0,1.68,1.68,0,0,0,1.71,1.68Z"/><path class="cls-36" d="M257.88,216.13a1.7,1.7,0,1,0,0-3.4,1.7,1.7,0,0,0,0,3.4Z"/><path class="cls-36" d="M253,340.16a1.7,1.7,0,1,0,0-3.39,1.7,1.7,0,0,0,0,3.39Z"/><path class="cls-36" d="M159.18,513a1.72,1.72,0,0,0,1.72-1.71,1.69,1.69,0,0,0-1.72-1.68,1.65,1.65,0,0,0-1.68,1.68,1.68,1.68,0,0,0,1.68,1.71Z"/><path class="cls-36" d="M215.85,178.11a1.67,1.67,0,0,0,1.67-1.67,1.7,1.7,0,1,0-3.39,0,1.68,1.68,0,0,0,1.72,1.67Z"/><path class="cls-36" d="M371.56,325.36a1.72,1.72,0,0,0,0-3.43,1.72,1.72,0,0,0,0,3.43Z"/><path class="cls-36" d="M194.07,875.56a1.7,1.7,0,1,0,0-3.39,1.7,1.7,0,0,0,0,3.39Z"/><path class="cls-36" d="M544.43,940.24a1.7,1.7,0,0,0,0-3.4,1.7,1.7,0,1,0,0,3.4Z"/><path class="cls-36" d="M1692.74,884.94a1.72,1.72,0,1,0-1.68-1.72,1.71,1.71,0,0,0,1.68,1.72Z"/><path class="cls-36" d="M1332.94,647.15a1.72,1.72,0,0,0,1.72-1.72,1.72,1.72,0,0,0-3.43,0,1.72,1.72,0,0,0,1.71,1.72Z"/></svg>